<mxfile host="app.diagrams.net" agent="Mozilla/5.0 (Windows NT 10.0; Win64; x64) AppleWebKit/537.36 (KHTML, like Gecko) Chrome/127.0.0.0 Safari/537.36" version="24.7.7">
  <diagram name="Halaman-1" id="mmqkswlH3_VgbyTcNW4_">
    <mxGraphModel dx="1434" dy="772" grid="1" gridSize="10" guides="1" tooltips="1" connect="1" arrows="1" fold="1" page="1" pageScale="1" pageWidth="827" pageHeight="1169" math="0" shadow="0">
      <root>
        <mxCell id="0" />
        <mxCell id="1" parent="0" />
        <mxCell id="fpn8-71K8ItQOe2RWrB1-1" value="" style="swimlane;startSize=0;" vertex="1" parent="1">
          <mxGeometry x="240" y="160" width="320" height="500" as="geometry" />
        </mxCell>
        <mxCell id="fpn8-71K8ItQOe2RWrB1-3" value="Login" style="ellipse;whiteSpace=wrap;html=1;" vertex="1" parent="fpn8-71K8ItQOe2RWrB1-1">
          <mxGeometry x="80" y="40" width="160" height="80" as="geometry" />
        </mxCell>
        <mxCell id="fpn8-71K8ItQOe2RWrB1-9" value="Input Poin Siswa" style="ellipse;whiteSpace=wrap;html=1;" vertex="1" parent="fpn8-71K8ItQOe2RWrB1-1">
          <mxGeometry x="80" y="130" width="160" height="80" as="geometry" />
        </mxCell>
        <mxCell id="fpn8-71K8ItQOe2RWrB1-8" value="Lihat Data Siswa" style="ellipse;whiteSpace=wrap;html=1;" vertex="1" parent="fpn8-71K8ItQOe2RWrB1-1">
          <mxGeometry x="80" y="220" width="160" height="80" as="geometry" />
        </mxCell>
        <mxCell id="fpn8-71K8ItQOe2RWrB1-7" value="Kelola Data Pengguna" style="ellipse;whiteSpace=wrap;html=1;" vertex="1" parent="fpn8-71K8ItQOe2RWrB1-1">
          <mxGeometry x="80" y="310" width="160" height="80" as="geometry" />
        </mxCell>
        <mxCell id="fpn8-71K8ItQOe2RWrB1-2" value="Actor" style="shape=umlActor;verticalLabelPosition=bottom;verticalAlign=top;html=1;outlineConnect=0;" vertex="1" parent="1">
          <mxGeometry x="170" y="240" width="30" height="60" as="geometry" />
        </mxCell>
      </root>
    </mxGraphModel>
  </diagram>
</mxfile>
